<?xml version="1.0" encoding="UTF-8"?>
<!DOCTYPE svg PUBLIC "-//W3C//DTD SVG 1.1//EN" "http://www.w3.org/Graphics/SVG/1.1/DTD/svg11.dtd">
<!-- Creator: CorelDRAW X7 -->
<svg xmlns="http://www.w3.org/2000/svg" xml:space="preserve" width="108.099mm" height="100.462mm" version="1.1" style="shape-rendering:geometricPrecision; text-rendering:geometricPrecision; image-rendering:optimizeQuality; fill-rule:evenodd; clip-rule:evenodd"
viewBox="0 0 10810 10046"
 xmlns:xlink="http://www.w3.org/1999/xlink">
 <defs>
  <style type="text/css">
   <![CDATA[
    .fil0 {fill:url(#id0)}
   ]]>
  </style>
  <linearGradient id="id0" gradientUnits="userSpaceOnUse" x1="1141.32" y1="8281.97" x2="7907.96" y2="956.103">
   <stop offset="0" style="stop-opacity:1; stop-color:#0043D4"/>
   <stop offset="1" style="stop-opacity:1; stop-color:#75B8FF"/>
  </linearGradient>
 </defs>
 <g id="Layer_x0020_1">
  <metadata id="CorelCorpID_0Corel-Layer"/>
  <path class="fil0" d="M7481 1202c1058,1833 2117,3666 3175,5499 311,539 120,1665 -294,2061 -1,-562 -262,-1019 -535,-1581 -1057,-1829 -2114,-3662 -3170,-5492 -266,-461 -724,-726 -1257,-726 -533,0 -990,265 -1257,726l-3177 5503 -6 19c-2,9 -3,19 -2,28l8 26 18 28 24 20 26 11c9,2 18,3 28,2l31 -8 1310 -543 1455 -603 568 -236 0 0 569 -236 41 -15 39 -14 306 -126 48 0c116,48 266,101 375,155l1139 473 -959 -1664 -584 -1008 -930 1610 -1415 534 1885 -3264c97,-169 264,-265 459,-265 195,0 362,96 460,265l1910 3303 -4 -1 466 807 164 284 788 1365 276 476 31 55c49,85 84,174 104,265 20,93 25,189 16,283 -9,94 -33,186 -71,274 -38,85 -89,166 -153,240 -65,74 -139,135 -219,184 -82,49 -170,85 -262,107 -92,21 -187,28 -282,20 -93,-8 -186,-31 -277,-68l-2946 -1221 -2947 1221c-90,37 -184,60 -277,68 -95,8 -190,1 -282,-20 -92,-22 -180,-58 -262,-107 -80,-49 -154,-110 -219,-184 -64,-74 -115,-155 -153,-240 -38,-88 -62,-180 -71,-274 -5,-47 -6,-94 -3,-141 239,172 646,130 944,-6l3270 -1355 351 145 2849 1181 -870 -1506 -2331 -965 -36 15 -2426 1005 -1151 478 -325 134c-105,44 -212,70 -320,79 -109,9 -219,1 -325,-23 -104,-25 -206,-66 -301,-123 -92,-56 -177,-127 -252,-212 -74,-85 -133,-178 -176,-277 -44,-100 -71,-206 -82,-315 -11,-108 -4,-217 19,-324 23,-104 62,-206 118,-304l1 -3c1058,-1833 2117,-3666 3175,-5499 441,-765 1199,-1202 2082,-1202 882,0 1640,437 2081,1202z"/>
 </g>
</svg>
